<svg xmlns="http://www.w3.org/2000/svg" width="18.948" height="18.998" viewBox="0 0 18.948 18.998">
    <path d="M15.619,21.119a3,3,0,0,1-4.243,0L3.054,13A3.119,3.119,0,0,1,2,10.75V6A3,3,0,0,1,5,3H9.75A3.12,3.12,0,0,1,12,4.054l8.073,8.373a3,3,0,0,1,0,4.243Zm-.707-.707,4.45-4.45a2,2,0,0,0,0-2.828l-8.25-8.549A1.744,1.744,0,0,0,9.75,4L4.973,3.973A2,2,0,0,0,3,6v4.75a1.744,1.744,0,0,0,.584,1.362l8.5,8.3A2,2,0,0,0,14.912,20.412ZM6.5,5A2.5,2.5,0,1,1,4,7.5,2.5,2.5,0,0,1,6.5,5Zm0,1A1.5,1.5,0,1,0,8,7.5,1.5,1.5,0,0,0,6.5,6Z" transform="translate(-2 -3)"/>
</svg>