<svg xmlns="http://www.w3.org/2000/svg" viewBox="0 0 19.969 13.969" width="18" fill="#FFF">
     <path d="M9.984,15l5.2-3-5.2-3ZM21.563,7.172a11.029,11.029,0,0,1,.281,1.9q.094,1.2.094,2.086l.047.844a20.006,20.006,0,0,1-.422,4.828,2.335,2.335,0,0,1-1.734,1.734,15,15,0,0,1-2.648.281q-1.945.094-3.586.094L12,18.984a41.466,41.466,0,0,1-7.828-.422,2.335,2.335,0,0,1-1.734-1.734,11.02,11.02,0,0,1-.281-1.9q-.094-1.2-.094-2.086L2.016,12a20.009,20.009,0,0,1,.422-4.828A2.335,2.335,0,0,1,4.172,5.438,15.008,15.008,0,0,1,6.82,5.156q1.945-.094,3.586-.094L12,5.016a41.456,41.456,0,0,1,7.828.422A2.335,2.335,0,0,1,21.563,7.172Z" transform="translate(-2.016 -5.016)"/>
</svg>